<svg xmlns="http://www.w3.org/2000/svg" viewBox="0 0 200 200"><defs><linearGradient id="seatGrad" x1="0%" y1="0%" x2="100%" y2="100%"><stop offset="0%" style="stop-color:#F97316;stop-opacity:1"></stop><stop offset="100%" style="stop-color:#FB923C;stop-opacity:1"></stop></linearGradient></defs><g transform="translate(100,100)"><path d="M-25,-30 L-25,25 L25,25 L25,-30 Q25,-40 15,-40 L-15,-40 Q-25,-40 -25,-30 Z" fill="url(#seatGrad)" opacity="0.3"></path><path d="M-25,-30 L-25,25 L25,25 L25,-30 Q25,-40 15,-40 L-15,-40 Q-25,-40 -25,-30 Z" fill="none" stroke="url(#seatGrad)" stroke-width="3"></path><line x1="-20" y1="-20" x2="20" y2="-20" stroke="url(#seatGrad)" stroke-width="1" opacity="0.5"></line><line x1="-20" y1="-10" x2="20" y2="-10" stroke="url(#seatGrad)" stroke-width="1" opacity="0.5"></line><line x1="-20" y1="0" x2="20" y2="0" stroke="url(#seatGrad)" stroke-width="1" opacity="0.5"></line><line x1="-20" y1="10" x2="20" y2="10" stroke="url(#seatGrad)" stroke-width="1" opacity="0.5"></line><rect x="30" y="-15" width="15" height="25" rx="3" fill="url(#seatGrad)"></rect><rect x="28" y="10" width="19" height="5" fill="url(#seatGrad)" opacity="0.7"></rect><circle cx="-10" cy="-5" r="3" fill="white" opacity="0.7"></circle><circle cx="0" cy="-10" r="4" fill="white" opacity="0.7"></circle><circle cx="10" cy="-3" r="3" fill="white" opacity="0.7"></circle><circle cx="5" cy="5" r="3.5" fill="white" opacity="0.7"></circle><circle cx="-5" cy="8" r="3" fill="white" opacity="0.7"></circle></g></svg>