<svg xmlns="http://www.w3.org/2000/svg" viewBox="0 0 200 200"><defs><linearGradient id="normalWaxGrad" x1="0%" y1="0%" x2="100%" y2="100%"><stop offset="0%" style="stop-color:#3B82F6;stop-opacity:1"></stop><stop offset="100%" style="stop-color:#60A5FA;stop-opacity:1"></stop></linearGradient></defs><g transform="translate(100,100)"><path d="M-50,0 L-45,-15 L-30,-20 L0,-22 L30,-20 L45,-15 L50,0 L50,15 L45,20 L-45,20 L-50,15 Z" fill="url(#normalWaxGrad)" opacity="0.3"></path><path d="M-40,-10 Q0,-20 40,-10" stroke="white" stroke-width="2" fill="none" opacity="0.9"></path><path d="M-35,0 Q0,-10 35,0" stroke="white" stroke-width="2" fill="none" opacity="0.7"></path><path d="M-30,10 Q0,0 30,10" stroke="white" stroke-width="1.5" fill="none" opacity="0.5"></path><path d="M0,-40 L-15,-35 L-15,-20 Q0,-10 15,-20 L15,-35 Z" fill="none" stroke="url(#normalWaxGrad)" stroke-width="2"></path><text x="-5" y="-25" font-size="14" fill="url(#normalWaxGrad)">2-3</text></g></svg>