<svg xmlns="http://www.w3.org/2000/svg" viewBox="0 0 200 200"><defs><linearGradient id="hardWaxGrad" x1="0%" y1="0%" x2="100%" y2="100%"><stop offset="0%" style="stop-color:#8B5CF6;stop-opacity:1"></stop><stop offset="100%" style="stop-color:#A78BFA;stop-opacity:1"></stop></linearGradient><linearGradient id="diamondGrad" x1="0%" y1="0%" x2="100%" y2="100%"><stop offset="0%" style="stop-color:#E0E7FF;stop-opacity:1"></stop><stop offset="100%" style="stop-color:#C7D2FE;stop-opacity:1"></stop></linearGradient></defs><g transform="translate(100,100)"><path d="M-50,0 L-45,-15 L-30,-20 L0,-22 L30,-20 L45,-15 L50,0 L50,15 L45,20 L-45,20 L-50,15 Z" fill="url(#hardWaxGrad)" opacity="0.4"></path><path d="M0,-45 L-20,-30 L-20,-10 Q0,5 20,-10 L20,-30 Z" fill="url(#diamondGrad)" opacity="0.8"></path><path d="M0,-45 L-20,-30 L0,-20 L20,-30 Z" fill="url(#hardWaxGrad)" opacity="0.6"></path><path d="M-45,-15 Q0,-25 45,-15" stroke="white" stroke-width="3" fill="none" opacity="1"></path><path d="M-40,-5 Q0,-15 40,-5" stroke="white" stroke-width="2.5" fill="none" opacity="0.8"></path><path d="M-35,5 Q0,-5 35,5" stroke="white" stroke-width="2" fill="none" opacity="0.6"></path><text x="-10" y="40" font-size="16" font-weight="bold" fill="url(#hardWaxGrad)">6 KK</text></g></svg>